# xmcd
#
# Track frame offsets:
# 150
# 14447
# 25639
# 45246
# 57455
# 68249
# 78968
# 90562
# 102271
# 112823
# 131111
# 142214
# 154772
# 164001
# 176318
# 189195
# 201441
# 212865
# 228306
# 247209
#
# Disc length: 3524 seconds
#
#
# Revision: 0
# Processed by: cddbd v1.5.1PL0 Copyright (c) Steve Scherf et al.
# Submitted via: FreeRIP 2.941 
#
DISCID=140dc214
DTITLE=Reader's Digest Music - Country Roads Disk 1
DYEAR=2005
DGENRE=Country
TTITLE0=Take Me Home, Country Roads
TTITLE1=Green, Green Grass of Home
TTITLE2=Georgia On My Mind
TTITLE3=By The Time I Get To Phoenix
TTITLE4=Mississippi Cotton Picking Delta Town
TTITLE5=Blueberry Hill
TTITLE6=The Yellow Rose Of Texas
TTITLE7=Rocky Top
TTITLE8=San Antonio Rose
TTITLE9=My Home's In Alabama
TTITLE10=Cotton Fields
TTITLE11=Sing Me Back Home
TTITLE12=Blue Moon Of Kentucky
TTITLE13=Deep In The Heart Of Texas
TTITLE14=Allegheny Moon
TTITLE15=Five Hundred Miles From Home
TTITLE16=Louisiana Woman, Mississippi Man
TTITLE17=Smokey Mountain Memories
TTITLE18=Rockie Mountain High
TTITLE19=Maple Street Memories
EXTD=
EXTT0=
EXTT1=
EXTT2=
EXTT3=
EXTT4=
EXTT5=
EXTT6=
EXTT7=
EXTT8=
EXTT9=
EXTT10=
EXTT11=
EXTT12=
EXTT13=
EXTT14=
EXTT15=
EXTT16=
EXTT17=
EXTT18=
EXTT19=
PLAYORDER=
